<?xml version="1.0" encoding="utf-8"?>
<!-- Generator: Adobe Illustrator 18.0.0, SVG Export Plug-In . SVG Version: 6.00 Build 0)  -->
<!DOCTYPE svg PUBLIC "-//W3C//DTD SVG 1.1//EN" "http://www.w3.org/Graphics/SVG/1.1/DTD/svg11.dtd">
<svg version="1.1" id="Layer_1" xmlns="http://www.w3.org/2000/svg" xmlns:xlink="http://www.w3.org/1999/xlink" x="0px" y="0px"
	 width="32px" height="32px" viewBox="0 0 32 32" enable-background="new 0 0 32 32" xml:space="preserve">
<path d="M25.179,15H2v-2h23.179C26.761,13,28,11.615,28,9.846C28,8.144,26.794,7,25,7c-1.738,0-3,1.262-3,3h-2c0-2.851,2.149-5,5-5
	c2.897,0,5,2.038,5,4.846C30,12.736,27.882,15,25.179,15z"/>
<path d="M16,27c-2.757,0-5-2.243-5-5h2c0,1.654,1.346,3,3,3s3-1.346,3-3c0-1.71-1.115-3-2.594-3H2v-2h14.406
	C18.982,17,21,19.196,21,22C21,24.757,18.757,27,16,27z"/>
</svg>
